<?xml version="1.0" encoding="UTF-8" standalone="no"?>
<!-- Created with Inkscape (http://www.inkscape.org/) -->

<svg
   xmlns:dc="http://purl.org/dc/elements/1.1/"
   xmlns:cc="http://creativecommons.org/ns#"
   xmlns:rdf="http://www.w3.org/1999/02/22-rdf-syntax-ns#"
   xmlns:svg="http://www.w3.org/2000/svg"
   xmlns="http://www.w3.org/2000/svg"
   xmlns:sodipodi="http://sodipodi.sourceforge.net/DTD/sodipodi-0.dtd"
   xmlns:inkscape="http://www.inkscape.org/namespaces/inkscape"
   width="744.09448819"
   height="1052.3622047"
   id="svg2"
   version="1.1"
   inkscape:version="0.48.1 r9760"
   sodipodi:docname="icon.svg">
  <defs
     id="defs4" />
  <sodipodi:namedview
     id="base"
     pagecolor="#ffffff"
     bordercolor="#666666"
     borderopacity="1.0"
     inkscape:pageopacity="0.0"
     inkscape:pageshadow="2"
     inkscape:zoom="0.81306879"
     inkscape:cx="65.872576"
     inkscape:cy="641.40507"
     inkscape:document-units="px"
     inkscape:current-layer="layer1"
     showgrid="false"
     inkscape:window-width="1366"
     inkscape:window-height="751"
     inkscape:window-x="1366"
     inkscape:window-y="0"
     inkscape:window-maximized="1" />
  <metadata
     id="metadata7">
    <rdf:RDF>
      <cc:Work
         rdf:about="">
        <dc:format>image/svg+xml</dc:format>
        <dc:type
           rdf:resource="http://purl.org/dc/dcmitype/StillImage" />
        <dc:title></dc:title>
      </cc:Work>
    </rdf:RDF>
  </metadata>
  <g
     inkscape:label="Layer 1"
     inkscape:groupmode="layer"
     id="layer1">
    <rect
       style="fill:#ffffff;fill-opacity:1;stroke:none"
       id="rect3229"
       width="16"
       height="16"
       x="394.60855"
       y="521.35718"
       inkscape:export-filename="/tmp/icon.png"
       inkscape:export-xdpi="90"
       inkscape:export-ydpi="90" />
    <rect
       style="fill:none;stroke:#000000;stroke-width:4.51117325;stroke-linejoin:round;stroke-miterlimit:4;stroke-opacity:1;stroke-dasharray:none"
       id="rect3231"
       width="76.238831"
       height="78.494415"
       x="271.00558"
       y="320.86218"
       inkscape:export-filename="/home/madbob/projects/LugMap/forge/lug-o-matic/placeholder.png"
       inkscape:export-xdpi="90"
       inkscape:export-ydpi="90" />
    <path
       sodipodi:type="arc"
       style="fill:#000000;fill-opacity:1;stroke:#000000;stroke-width:2;stroke-linecap:round;stroke-linejoin:round;stroke-miterlimit:4;stroke-opacity:1;stroke-dasharray:none"
       id="path2989"
       sodipodi:cx="230.60519"
       sodipodi:cy="290.0127"
       sodipodi:rx="5.4800777"
       sodipodi:ry="5.4800777"
       d="m 236.08527,290.0127 a 5.4800777,5.4800777 0 1 1 -10.96015,0 5.4800777,5.4800777 0 1 1 10.96015,0 z"
       transform="matrix(0.87395244,-0.85109852,0.87395244,0.85109852,-165.262,237.20559)"
       inkscape:export-filename="/tmp/icon.png"
       inkscape:export-xdpi="90"
       inkscape:export-ydpi="90" />
    <path
       sodipodi:type="star"
       style="fill:#000000;fill-opacity:1;stroke:#000000;stroke-width:2;stroke-linecap:round;stroke-linejoin:round;stroke-miterlimit:4;stroke-opacity:1;stroke-dasharray:none"
       id="path3006"
       sodipodi:sides="3"
       sodipodi:cx="218.67278"
       sodipodi:cy="296.73019"
       sodipodi:r1="5.0412364"
       sodipodi:r2="2.520618"
       sodipodi:arg1="1.5707963"
       sodipodi:arg2="2.6179939"
       inkscape:flatsided="false"
       inkscape:rounded="0"
       inkscape:randomized="0"
       d="m 218.67278,301.77143 -2.18292,-3.78093 -2.18292,-3.78092 4.36584,0 4.36583,0 -2.18292,3.78092 z"
       inkscape:transform-center-y="0.74571781"
       transform="matrix(0.60758118,0,0,0.59169289,156.87183,119.80195)"
       inkscape:export-filename="/tmp/icon.png"
       inkscape:export-xdpi="90"
       inkscape:export-ydpi="90" />
    <path
       inkscape:export-ydpi="90"
       inkscape:export-xdpi="90"
       inkscape:export-filename="/tmp/icon.png"
       transform="matrix(0.22675233,0,0,0.22273016,240.37205,240.83998)"
       inkscape:transform-center-y="0.95663439"
       d="m 217.68787,239.1968 -7.43917,-12.88501 -7.43917,-12.88501 14.87834,0 14.87833,-1e-5 -7.43917,12.88502 z"
       inkscape:randomized="0"
       inkscape:rounded="0"
       inkscape:flatsided="false"
       sodipodi:arg2="2.6179939"
       sodipodi:arg1="1.5707963"
       sodipodi:r2="8.5900087"
       sodipodi:r1="17.180019"
       sodipodi:cy="222.01678"
       sodipodi:cx="217.68787"
       sodipodi:sides="3"
       id="path3008"
       style="fill:#ffa200;fill-opacity:1;stroke:#000000;stroke-width:2;stroke-linecap:round;stroke-linejoin:round;stroke-miterlimit:4;stroke-opacity:1;stroke-dasharray:none"
       sodipodi:type="star" />
    <g
       inkscape:export-ydpi="90"
       inkscape:export-xdpi="90"
       inkscape:export-filename="/tmp/icon.png"
       transform="matrix(0.1697956,0,0,0.16678373,250.69155,253.94794)"
       id="g3010">
      <path
         d="m 239.91123,197.01552 c 0,8.50785 -6.89697,15.40482 -15.40482,15.40482 -8.50785,0 -15.40483,-6.89697 -15.40483,-15.40482 0,-8.50785 6.89698,-15.40483 15.40483,-15.40483 8.50785,0 15.40482,6.89698 15.40482,15.40483 z"
         sodipodi:ry="15.404826"
         sodipodi:rx="15.404826"
         sodipodi:cy="197.01552"
         sodipodi:cx="224.50641"
         id="path3012"
         style="fill:#ffffff;fill-opacity:1;stroke:#000000;stroke-width:2.56033802;stroke-linecap:round;stroke-linejoin:round;stroke-miterlimit:4;stroke-opacity:1;stroke-dasharray:none"
         sodipodi:type="arc"
         transform="matrix(1.0431771,0,0,1.0431771,11.733742,-15.81225)" />
      <path
         d="m 230.81985,196.51044 c 0,1.5342 -1.24372,2.77792 -2.77792,2.77792 -1.5342,0 -2.77792,-1.24372 -2.77792,-2.77792 0,-1.53421 1.24372,-2.77792 2.77792,-2.77792 1.5342,0 2.77792,1.24371 2.77792,2.77792 z"
         sodipodi:ry="2.7779195"
         sodipodi:rx="2.7779195"
         sodipodi:cy="196.51044"
         sodipodi:cx="228.04193"
         id="path3014"
         style="fill:#000000;fill-opacity:1;stroke:#000000;stroke-width:2;stroke-linecap:round;stroke-linejoin:round;stroke-miterlimit:4;stroke-opacity:1;stroke-dasharray:none"
         sodipodi:type="arc"
         transform="matrix(1.3354429,0,0,1.3354429,-66.581532,-72.718648)" />
      <path
         transform="matrix(-1.0431771,0,0,1.0431771,448.13363,-15.81225)"
         sodipodi:type="arc"
         style="fill:#ffffff;fill-opacity:1;stroke:#000000;stroke-width:2.56033802;stroke-linecap:round;stroke-linejoin:round;stroke-miterlimit:4;stroke-opacity:1;stroke-dasharray:none"
         id="path3016"
         sodipodi:cx="224.50641"
         sodipodi:cy="197.01552"
         sodipodi:rx="15.404826"
         sodipodi:ry="15.404826"
         d="m 239.91123,197.01552 c 0,8.50785 -6.89697,15.40482 -15.40482,15.40482 -8.50785,0 -15.40483,-6.89697 -15.40483,-15.40482 0,-8.50785 6.89698,-15.40483 15.40483,-15.40483 8.50785,0 15.40482,6.89698 15.40482,15.40483 z" />
      <path
         transform="matrix(-1.3354429,0,0,1.3354429,526.4489,-72.718648)"
         sodipodi:type="arc"
         style="fill:#000000;fill-opacity:1;stroke:#000000;stroke-width:2;stroke-linecap:round;stroke-linejoin:round;stroke-miterlimit:4;stroke-opacity:1;stroke-dasharray:none"
         id="path3018"
         sodipodi:cx="228.04193"
         sodipodi:cy="196.51044"
         sodipodi:rx="2.7779195"
         sodipodi:ry="2.7779195"
         d="m 230.81985,196.51044 c 0,1.5342 -1.24372,2.77792 -2.77792,2.77792 -1.5342,0 -2.77792,-1.24372 -2.77792,-2.77792 0,-1.53421 1.24372,-2.77792 2.77792,-2.77792 1.5342,0 2.77792,1.24371 2.77792,2.77792 z" />
    </g>
    <path
       inkscape:export-ydpi="90"
       inkscape:export-xdpi="90"
       inkscape:export-filename="/tmp/logo.png"
       transform="matrix(7.8173747,-7.6129499,7.8173747,7.6129499,-3616.6301,-253.40451)"
       d="m 236.08527,290.0127 a 5.4800777,5.4800777 0 1 1 -10.96015,0 5.4800777,5.4800777 0 1 1 10.96015,0 z"
       sodipodi:ry="5.4800777"
       sodipodi:rx="5.4800777"
       sodipodi:cy="290.0127"
       sodipodi:cx="230.60519"
       id="path2997"
       style="fill:#000000;fill-opacity:1;stroke:#000000;stroke-width:2;stroke-linecap:round;stroke-linejoin:round;stroke-miterlimit:4;stroke-opacity:1;stroke-dasharray:none"
       sodipodi:type="arc" />
    <path
       inkscape:export-ydpi="90"
       inkscape:export-xdpi="90"
       inkscape:export-filename="/tmp/logo.png"
       transform="matrix(5.4347234,0,0,5.292605,-735.19086,-1303.5626)"
       inkscape:transform-center-y="6.6703631"
       d="m 218.67278,301.77143 -2.18292,-3.78093 -2.18292,-3.78092 4.36584,0 4.36583,0 -2.18292,3.78092 z"
       inkscape:randomized="0"
       inkscape:rounded="0"
       inkscape:flatsided="false"
       sodipodi:arg2="2.6179939"
       sodipodi:arg1="1.5707963"
       sodipodi:r2="2.520618"
       sodipodi:r1="5.0412364"
       sodipodi:cy="296.73019"
       sodipodi:cx="218.67278"
       sodipodi:sides="3"
       id="path2999"
       style="fill:#000000;fill-opacity:1;stroke:#000000;stroke-width:2;stroke-linecap:round;stroke-linejoin:round;stroke-miterlimit:4;stroke-opacity:1;stroke-dasharray:none"
       sodipodi:type="star" />
    <path
       sodipodi:type="star"
       style="fill:#ffa200;fill-opacity:1;stroke:#000000;stroke-width:2;stroke-linecap:round;stroke-linejoin:round;stroke-miterlimit:4;stroke-opacity:1;stroke-dasharray:none"
       id="path3001"
       sodipodi:sides="3"
       sodipodi:cx="217.68787"
       sodipodi:cy="222.01678"
       sodipodi:r1="17.180019"
       sodipodi:r2="8.5900087"
       sodipodi:arg1="1.5707963"
       sodipodi:arg2="2.6179939"
       inkscape:flatsided="false"
       inkscape:rounded="0"
       inkscape:randomized="0"
       d="m 217.68787,239.1968 -7.43917,-12.88501 -7.43917,-12.88501 14.87834,0 14.87833,-1e-5 -7.43917,12.88502 z"
       inkscape:transform-center-y="8.5569324"
       transform="matrix(2.0282659,0,0,1.9922881,11.706202,-220.89543)"
       inkscape:export-filename="/tmp/logo.png"
       inkscape:export-xdpi="90"
       inkscape:export-ydpi="90" />
    <g
       id="g3003"
       transform="matrix(1.5187964,0,0,1.4918557,104.0126,-103.64668)"
       inkscape:export-filename="/tmp/logo.png"
       inkscape:export-xdpi="90"
       inkscape:export-ydpi="90">
      <path
         transform="matrix(1.0431771,0,0,1.0431771,11.733742,-15.81225)"
         sodipodi:type="arc"
         style="fill:#ffffff;fill-opacity:1;stroke:#000000;stroke-width:2.56033802;stroke-linecap:round;stroke-linejoin:round;stroke-miterlimit:4;stroke-opacity:1;stroke-dasharray:none"
         id="path3005"
         sodipodi:cx="224.50641"
         sodipodi:cy="197.01552"
         sodipodi:rx="15.404826"
         sodipodi:ry="15.404826"
         d="m 239.91123,197.01552 c 0,8.50785 -6.89697,15.40482 -15.40482,15.40482 -8.50785,0 -15.40483,-6.89697 -15.40483,-15.40482 0,-8.50785 6.89698,-15.40483 15.40483,-15.40483 8.50785,0 15.40482,6.89698 15.40482,15.40483 z" />
      <path
         transform="matrix(1.3354429,0,0,1.3354429,-66.581532,-72.718648)"
         sodipodi:type="arc"
         style="fill:#000000;fill-opacity:1;stroke:#000000;stroke-width:2;stroke-linecap:round;stroke-linejoin:round;stroke-miterlimit:4;stroke-opacity:1;stroke-dasharray:none"
         id="path3007"
         sodipodi:cx="228.04193"
         sodipodi:cy="196.51044"
         sodipodi:rx="2.7779195"
         sodipodi:ry="2.7779195"
         d="m 230.81985,196.51044 c 0,1.5342 -1.24372,2.77792 -2.77792,2.77792 -1.5342,0 -2.77792,-1.24372 -2.77792,-2.77792 0,-1.53421 1.24372,-2.77792 2.77792,-2.77792 1.5342,0 2.77792,1.24371 2.77792,2.77792 z" />
      <path
         d="m 239.91123,197.01552 c 0,8.50785 -6.89697,15.40482 -15.40482,15.40482 -8.50785,0 -15.40483,-6.89697 -15.40483,-15.40482 0,-8.50785 6.89698,-15.40483 15.40483,-15.40483 8.50785,0 15.40482,6.89698 15.40482,15.40483 z"
         sodipodi:ry="15.404826"
         sodipodi:rx="15.404826"
         sodipodi:cy="197.01552"
         sodipodi:cx="224.50641"
         id="path3009"
         style="fill:#ffffff;fill-opacity:1;stroke:#000000;stroke-width:2.56033802;stroke-linecap:round;stroke-linejoin:round;stroke-miterlimit:4;stroke-opacity:1;stroke-dasharray:none"
         sodipodi:type="arc"
         transform="matrix(-1.0431771,0,0,1.0431771,448.13363,-15.81225)" />
      <path
         d="m 230.81985,196.51044 c 0,1.5342 -1.24372,2.77792 -2.77792,2.77792 -1.5342,0 -2.77792,-1.24372 -2.77792,-2.77792 0,-1.53421 1.24372,-2.77792 2.77792,-2.77792 1.5342,0 2.77792,1.24371 2.77792,2.77792 z"
         sodipodi:ry="2.7779195"
         sodipodi:rx="2.7779195"
         sodipodi:cy="196.51044"
         sodipodi:cx="228.04193"
         id="path3011"
         style="fill:#000000;fill-opacity:1;stroke:#000000;stroke-width:2;stroke-linecap:round;stroke-linejoin:round;stroke-miterlimit:4;stroke-opacity:1;stroke-dasharray:none"
         sodipodi:type="arc"
         transform="matrix(-1.3354429,0,0,1.3354429,526.4489,-72.718648)" />
    </g>
    <path
       inkscape:export-ydpi="90"
       inkscape:export-xdpi="90"
       inkscape:export-filename="/tmp/icon_user.png"
       transform="matrix(0.87395244,-0.85109852,0.87395244,0.85109852,-125.262,237.20559)"
       d="m 236.08527,290.0127 a 5.4800777,5.4800777 0 1 1 -10.96015,0 5.4800777,5.4800777 0 1 1 10.96015,0 z"
       sodipodi:ry="5.4800777"
       sodipodi:rx="5.4800777"
       sodipodi:cy="290.0127"
       sodipodi:cx="230.60519"
       id="path3196"
       style="fill:#ff0000;fill-opacity:1;stroke:#ff0000;stroke-width:2;stroke-linecap:round;stroke-linejoin:round;stroke-miterlimit:4;stroke-opacity:1;stroke-dasharray:none"
       sodipodi:type="arc" />
    <path
       inkscape:export-ydpi="90"
       inkscape:export-xdpi="90"
       inkscape:export-filename="/tmp/icon_user.png"
       transform="matrix(0.60758118,0,0,0.59169289,196.87183,119.80195)"
       inkscape:transform-center-y="0.74571781"
       d="m 218.67278,301.77143 -2.18292,-3.78093 -2.18292,-3.78092 4.36584,0 4.36583,0 -2.18292,3.78092 z"
       inkscape:randomized="0"
       inkscape:rounded="0"
       inkscape:flatsided="false"
       sodipodi:arg2="2.6179939"
       sodipodi:arg1="1.5707963"
       sodipodi:r2="2.520618"
       sodipodi:r1="5.0412364"
       sodipodi:cy="296.73019"
       sodipodi:cx="218.67278"
       sodipodi:sides="3"
       id="path3198"
       style="fill:#ff0000;fill-opacity:1;stroke:#ff0000;stroke-width:2;stroke-linecap:round;stroke-linejoin:round;stroke-miterlimit:4;stroke-opacity:1;stroke-dasharray:none"
       sodipodi:type="star" />
    <path
       sodipodi:type="star"
       style="fill:#ffa200;fill-opacity:1;stroke:#000000;stroke-width:2;stroke-linecap:round;stroke-linejoin:round;stroke-miterlimit:4;stroke-opacity:1;stroke-dasharray:none"
       id="path3200"
       sodipodi:sides="3"
       sodipodi:cx="217.68787"
       sodipodi:cy="222.01678"
       sodipodi:r1="17.180019"
       sodipodi:r2="8.5900087"
       sodipodi:arg1="1.5707963"
       sodipodi:arg2="2.6179939"
       inkscape:flatsided="false"
       inkscape:rounded="0"
       inkscape:randomized="0"
       d="m 217.68787,239.1968 -7.43917,-12.88501 -7.43917,-12.88501 14.87834,0 14.87833,-1e-5 -7.43917,12.88502 z"
       inkscape:transform-center-y="0.95663439"
       transform="matrix(0.22675233,0,0,0.22273016,280.37205,240.83998)"
       inkscape:export-filename="/tmp/icon_user.png"
       inkscape:export-xdpi="90"
       inkscape:export-ydpi="90" />
    <g
       id="g3202"
       transform="matrix(0.1697956,0,0,0.16678373,290.69155,253.94794)"
       inkscape:export-filename="/tmp/icon_user.png"
       inkscape:export-xdpi="90"
       inkscape:export-ydpi="90">
      <path
         transform="matrix(1.0431771,0,0,1.0431771,11.733742,-15.81225)"
         sodipodi:type="arc"
         style="fill:#ffffff;fill-opacity:1;stroke:#000000;stroke-width:2.56033802;stroke-linecap:round;stroke-linejoin:round;stroke-miterlimit:4;stroke-opacity:1;stroke-dasharray:none"
         id="path3204"
         sodipodi:cx="224.50641"
         sodipodi:cy="197.01552"
         sodipodi:rx="15.404826"
         sodipodi:ry="15.404826"
         d="m 239.91123,197.01552 c 0,8.50785 -6.89697,15.40482 -15.40482,15.40482 -8.50785,0 -15.40483,-6.89697 -15.40483,-15.40482 0,-8.50785 6.89698,-15.40483 15.40483,-15.40483 8.50785,0 15.40482,6.89698 15.40482,15.40483 z" />
      <path
         transform="matrix(1.3354429,0,0,1.3354429,-66.581532,-72.718648)"
         sodipodi:type="arc"
         style="fill:#000000;fill-opacity:1;stroke:#000000;stroke-width:2;stroke-linecap:round;stroke-linejoin:round;stroke-miterlimit:4;stroke-opacity:1;stroke-dasharray:none"
         id="path3206"
         sodipodi:cx="228.04193"
         sodipodi:cy="196.51044"
         sodipodi:rx="2.7779195"
         sodipodi:ry="2.7779195"
         d="m 230.81985,196.51044 c 0,1.5342 -1.24372,2.77792 -2.77792,2.77792 -1.5342,0 -2.77792,-1.24372 -2.77792,-2.77792 0,-1.53421 1.24372,-2.77792 2.77792,-2.77792 1.5342,0 2.77792,1.24371 2.77792,2.77792 z" />
      <path
         d="m 239.91123,197.01552 c 0,8.50785 -6.89697,15.40482 -15.40482,15.40482 -8.50785,0 -15.40483,-6.89697 -15.40483,-15.40482 0,-8.50785 6.89698,-15.40483 15.40483,-15.40483 8.50785,0 15.40482,6.89698 15.40482,15.40483 z"
         sodipodi:ry="15.404826"
         sodipodi:rx="15.404826"
         sodipodi:cy="197.01552"
         sodipodi:cx="224.50641"
         id="path3208"
         style="fill:#ffffff;fill-opacity:1;stroke:#000000;stroke-width:2.56033802;stroke-linecap:round;stroke-linejoin:round;stroke-miterlimit:4;stroke-opacity:1;stroke-dasharray:none"
         sodipodi:type="arc"
         transform="matrix(-1.0431771,0,0,1.0431771,448.13363,-15.81225)" />
      <path
         d="m 230.81985,196.51044 c 0,1.5342 -1.24372,2.77792 -2.77792,2.77792 -1.5342,0 -2.77792,-1.24372 -2.77792,-2.77792 0,-1.53421 1.24372,-2.77792 2.77792,-2.77792 1.5342,0 2.77792,1.24371 2.77792,2.77792 z"
         sodipodi:ry="2.7779195"
         sodipodi:rx="2.7779195"
         sodipodi:cy="196.51044"
         sodipodi:cx="228.04193"
         id="path3210"
         style="fill:#000000;fill-opacity:1;stroke:#000000;stroke-width:2;stroke-linecap:round;stroke-linejoin:round;stroke-miterlimit:4;stroke-opacity:1;stroke-dasharray:none"
         sodipodi:type="arc"
         transform="matrix(-1.3354429,0,0,1.3354429,526.4489,-72.718648)" />
    </g>
    <g
       id="g4001"
       transform="translate(0.50512695,0.24498906)">
      <g
         transform="translate(4.5881867,0)"
         id="g3221">
        <path
           inkscape:export-ydpi="90"
           inkscape:export-xdpi="90"
           inkscape:export-filename="/tmp/icon.png"
           transform="matrix(2.437372,-2.3736345,2.437372,2.3736345,-964.90778,206.73709)"
           d="m 236.08527,290.0127 c 0,3.02656 -2.45351,5.48007 -5.48008,5.48007 -3.02656,0 -5.48007,-2.45351 -5.48007,-5.48007 0,-3.02657 2.45351,-5.48008 5.48007,-5.48008 3.02657,0 5.48008,2.45351 5.48008,5.48008 z"
           sodipodi:ry="5.4800777"
           sodipodi:rx="5.4800777"
           sodipodi:cy="290.0127"
           sodipodi:cx="230.60519"
           id="path3197"
           style="fill:#000000;fill-opacity:1;stroke:#000000;stroke-width:2;stroke-linecap:round;stroke-linejoin:round;stroke-miterlimit:4;stroke-opacity:1;stroke-dasharray:none"
           sodipodi:type="arc" />
        <path
           inkscape:export-ydpi="90"
           inkscape:export-xdpi="90"
           inkscape:export-filename="/tmp/icon.png"
           transform="matrix(1.6944873,0,0,1.6501764,-66.506515,-120.69073)"
           inkscape:transform-center-y="2.0797411"
           d="m 218.67278,301.77143 -2.18292,-3.78093 -2.18292,-3.78092 4.36584,0 4.36583,0 -2.18292,3.78092 z"
           inkscape:randomized="0"
           inkscape:rounded="0"
           inkscape:flatsided="false"
           sodipodi:arg2="2.6179939"
           sodipodi:arg1="1.5707963"
           sodipodi:r2="2.520618"
           sodipodi:r1="5.0412364"
           sodipodi:cy="296.73019"
           sodipodi:cx="218.67278"
           sodipodi:sides="3"
           id="path3199"
           style="fill:#000000;fill-opacity:1;stroke:#000000;stroke-width:2;stroke-linecap:round;stroke-linejoin:round;stroke-miterlimit:4;stroke-opacity:1;stroke-dasharray:none"
           sodipodi:type="star"
           inkscape:transform-center-x="1.0167696e-05" />
        <path
           sodipodi:type="star"
           style="fill:#ffa200;fill-opacity:1;stroke:#000000;stroke-width:2;stroke-linecap:round;stroke-linejoin:round;stroke-miterlimit:4;stroke-opacity:1;stroke-dasharray:none"
           id="path3201"
           sodipodi:sides="3"
           sodipodi:cx="217.68787"
           sodipodi:cy="222.01678"
           sodipodi:r1="17.180019"
           sodipodi:r2="8.5900087"
           sodipodi:arg1="1.5707963"
           sodipodi:arg2="2.6179939"
           inkscape:flatsided="false"
           inkscape:rounded="0"
           inkscape:randomized="0"
           d="m 217.68787,239.1968 -7.43917,-12.88501 -7.43917,-12.88501 14.87834,0 14.87833,-1e-5 -7.43917,12.88502 z"
           inkscape:transform-center-y="2.6679659"
           transform="matrix(0.63239114,0,0,0.62117368,166.36782,216.87307)"
           inkscape:export-filename="/tmp/icon.png"
           inkscape:export-xdpi="90"
           inkscape:export-ydpi="90" />
        <g
           id="g3203"
           transform="matrix(0.47354412,0,0,0.4651443,195.14795,253.42995)"
           inkscape:export-filename="/tmp/icon.png"
           inkscape:export-xdpi="90"
           inkscape:export-ydpi="90">
          <path
             transform="matrix(1.0431771,0,0,1.0431771,11.733742,-15.81225)"
             sodipodi:type="arc"
             style="fill:#ffffff;fill-opacity:1;stroke:#000000;stroke-width:2.56033802;stroke-linecap:round;stroke-linejoin:round;stroke-miterlimit:4;stroke-opacity:1;stroke-dasharray:none"
             id="path3205"
             sodipodi:cx="224.50641"
             sodipodi:cy="197.01552"
             sodipodi:rx="15.404826"
             sodipodi:ry="15.404826"
             d="m 239.91123,197.01552 c 0,8.50785 -6.89697,15.40482 -15.40482,15.40482 -8.50785,0 -15.40483,-6.89697 -15.40483,-15.40482 0,-8.50785 6.89698,-15.40483 15.40483,-15.40483 8.50785,0 15.40482,6.89698 15.40482,15.40483 z" />
          <path
             transform="matrix(1.3354429,0,0,1.3354429,-66.581532,-72.718648)"
             sodipodi:type="arc"
             style="fill:#000000;fill-opacity:1;stroke:#000000;stroke-width:2;stroke-linecap:round;stroke-linejoin:round;stroke-miterlimit:4;stroke-opacity:1;stroke-dasharray:none"
             id="path3207"
             sodipodi:cx="228.04193"
             sodipodi:cy="196.51044"
             sodipodi:rx="2.7779195"
             sodipodi:ry="2.7779195"
             d="m 230.81985,196.51044 c 0,1.5342 -1.24372,2.77792 -2.77792,2.77792 -1.5342,0 -2.77792,-1.24372 -2.77792,-2.77792 0,-1.53421 1.24372,-2.77792 2.77792,-2.77792 1.5342,0 2.77792,1.24371 2.77792,2.77792 z" />
          <path
             d="m 239.91123,197.01552 c 0,8.50785 -6.89697,15.40482 -15.40482,15.40482 -8.50785,0 -15.40483,-6.89697 -15.40483,-15.40482 0,-8.50785 6.89698,-15.40483 15.40483,-15.40483 8.50785,0 15.40482,6.89698 15.40482,15.40483 z"
             sodipodi:ry="15.404826"
             sodipodi:rx="15.404826"
             sodipodi:cy="197.01552"
             sodipodi:cx="224.50641"
             id="path3209"
             style="fill:#ffffff;fill-opacity:1;stroke:#000000;stroke-width:2.56033802;stroke-linecap:round;stroke-linejoin:round;stroke-miterlimit:4;stroke-opacity:1;stroke-dasharray:none"
             sodipodi:type="arc"
             transform="matrix(-1.0431771,0,0,1.0431771,448.13363,-15.81225)" />
          <path
             d="m 230.81985,196.51044 c 0,1.5342 -1.24372,2.77792 -2.77792,2.77792 -1.5342,0 -2.77792,-1.24372 -2.77792,-2.77792 0,-1.53421 1.24372,-2.77792 2.77792,-2.77792 1.5342,0 2.77792,1.24371 2.77792,2.77792 z"
             sodipodi:ry="2.7779195"
             sodipodi:rx="2.7779195"
             sodipodi:cy="196.51044"
             sodipodi:cx="228.04193"
             id="path3211"
             style="fill:#000000;fill-opacity:1;stroke:#000000;stroke-width:2;stroke-linecap:round;stroke-linejoin:round;stroke-miterlimit:4;stroke-opacity:1;stroke-dasharray:none"
             sodipodi:type="arc"
             transform="matrix(-1.3354429,0,0,1.3354429,526.4489,-72.718648)" />
        </g>
      </g>
      <text
         sodipodi:linespacing="125%"
         id="text3213"
         y="391.4892"
         x="308.69775"
         style="font-size:40px;font-style:normal;font-weight:normal;line-height:125%;letter-spacing:0px;word-spacing:0px;fill:#000000;fill-opacity:1;stroke:none;font-family:Sans"
         xml:space="preserve"><tspan
           style="font-size:11px;text-align:center;text-anchor:middle"
           id="tspan3217"
           y="391.4892"
           x="308.69775"
           sodipodi:role="line">loading...</tspan></text>
    </g>
    <g
       id="g3999"
       transform="matrix(0.97500044,0,0,0.97500044,-15.149006,11.673307)"
       inkscape:export-filename="/tmp/icon.png"
       inkscape:export-xdpi="90"
       inkscape:export-ydpi="90">
      <path
         inkscape:export-ydpi="90"
         inkscape:export-xdpi="90"
         inkscape:export-filename="/tmp/logo.png"
         transform="matrix(0.73572674,-0.71648744,0.73572674,0.71648744,45.436593,486.97241)"
         d="m 236.08527,290.0127 c 0,3.02656 -2.45351,5.48007 -5.48008,5.48007 -3.02656,0 -5.48007,-2.45351 -5.48007,-5.48007 0,-3.02657 2.45351,-5.48008 5.48007,-5.48008 3.02657,0 5.48008,2.45351 5.48008,5.48008 z"
         sodipodi:ry="5.4800777"
         sodipodi:rx="5.4800777"
         sodipodi:cy="290.0127"
         sodipodi:cx="230.60519"
         id="path3213"
         style="fill:#000000;fill-opacity:1;stroke:#000000;stroke-width:2;stroke-linecap:round;stroke-linejoin:round;stroke-miterlimit:4;stroke-opacity:1;stroke-dasharray:none"
         sodipodi:type="arc" />
      <path
         inkscape:export-ydpi="90"
         inkscape:export-xdpi="90"
         inkscape:export-filename="/tmp/logo.png"
         transform="matrix(0.51148518,0,0,0.49810981,316.62123,388.13751)"
         inkscape:transform-center-y="0.62777428"
         d="m 218.67278,301.77143 -2.18292,-3.78093 -2.18292,-3.78092 4.36584,0 4.36583,0 -2.18292,3.78092 z"
         inkscape:randomized="0"
         inkscape:rounded="0"
         inkscape:flatsided="false"
         sodipodi:arg2="2.6179939"
         sodipodi:arg1="1.5707963"
         sodipodi:r2="2.520618"
         sodipodi:r1="5.0412364"
         sodipodi:cy="296.73019"
         sodipodi:cx="218.67278"
         sodipodi:sides="3"
         id="path3215"
         style="fill:#000000;fill-opacity:1;stroke:#000000;stroke-width:2;stroke-linecap:round;stroke-linejoin:round;stroke-miterlimit:4;stroke-opacity:1;stroke-dasharray:none"
         sodipodi:type="star" />
      <path
         sodipodi:type="star"
         style="fill:#ffa200;fill-opacity:1;stroke:#000000;stroke-width:2;stroke-linecap:round;stroke-linejoin:round;stroke-miterlimit:4;stroke-opacity:1;stroke-dasharray:none"
         id="path3217"
         sodipodi:sides="3"
         sodipodi:cx="217.68787"
         sodipodi:cy="222.01678"
         sodipodi:r1="17.180019"
         sodipodi:r2="8.5900087"
         sodipodi:arg1="1.5707963"
         sodipodi:arg2="2.6179939"
         inkscape:flatsided="false"
         inkscape:rounded="0"
         inkscape:randomized="0"
         d="m 217.68787,239.1968 -7.43917,-12.88501 -7.43917,-12.88501 14.87834,0 14.87833,-1e-5 -7.43917,12.88502 z"
         inkscape:transform-center-y="0.80532596"
         transform="matrix(0.19088882,0,0,0.1875028,386.91492,490.03197)"
         inkscape:export-filename="/tmp/logo.png"
         inkscape:export-xdpi="90"
         inkscape:export-ydpi="90" />
      <g
         id="g3219"
         transform="matrix(0.14294046,0,0,0.14040495,395.60227,501.06676)"
         inkscape:export-filename="/tmp/logo.png"
         inkscape:export-xdpi="90"
         inkscape:export-ydpi="90">
        <path
           transform="matrix(1.0431771,0,0,1.0431771,11.733742,-15.81225)"
           sodipodi:type="arc"
           style="fill:#ffffff;fill-opacity:1;stroke:#000000;stroke-width:2.56033802;stroke-linecap:round;stroke-linejoin:round;stroke-miterlimit:4;stroke-opacity:1;stroke-dasharray:none"
           id="path3221"
           sodipodi:cx="224.50641"
           sodipodi:cy="197.01552"
           sodipodi:rx="15.404826"
           sodipodi:ry="15.404826"
           d="m 239.91123,197.01552 c 0,8.50785 -6.89697,15.40482 -15.40482,15.40482 -8.50785,0 -15.40483,-6.89697 -15.40483,-15.40482 0,-8.50785 6.89698,-15.40483 15.40483,-15.40483 8.50785,0 15.40482,6.89698 15.40482,15.40483 z" />
        <path
           transform="matrix(1.3354429,0,0,1.3354429,-66.581532,-72.718648)"
           sodipodi:type="arc"
           style="fill:#000000;fill-opacity:1;stroke:#000000;stroke-width:2;stroke-linecap:round;stroke-linejoin:round;stroke-miterlimit:4;stroke-opacity:1;stroke-dasharray:none"
           id="path3223"
           sodipodi:cx="228.04193"
           sodipodi:cy="196.51044"
           sodipodi:rx="2.7779195"
           sodipodi:ry="2.7779195"
           d="m 230.81985,196.51044 c 0,1.5342 -1.24372,2.77792 -2.77792,2.77792 -1.5342,0 -2.77792,-1.24372 -2.77792,-2.77792 0,-1.53421 1.24372,-2.77792 2.77792,-2.77792 1.5342,0 2.77792,1.24371 2.77792,2.77792 z" />
        <path
           d="m 239.91123,197.01552 c 0,8.50785 -6.89697,15.40482 -15.40482,15.40482 -8.50785,0 -15.40483,-6.89697 -15.40483,-15.40482 0,-8.50785 6.89698,-15.40483 15.40483,-15.40483 8.50785,0 15.40482,6.89698 15.40482,15.40483 z"
           sodipodi:ry="15.404826"
           sodipodi:rx="15.404826"
           sodipodi:cy="197.01552"
           sodipodi:cx="224.50641"
           id="path3225"
           style="fill:#ffffff;fill-opacity:1;stroke:#000000;stroke-width:2.56033802;stroke-linecap:round;stroke-linejoin:round;stroke-miterlimit:4;stroke-opacity:1;stroke-dasharray:none"
           sodipodi:type="arc"
           transform="matrix(-1.0431771,0,0,1.0431771,448.13363,-15.81225)" />
        <path
           d="m 230.81985,196.51044 c 0,1.5342 -1.24372,2.77792 -2.77792,2.77792 -1.5342,0 -2.77792,-1.24372 -2.77792,-2.77792 0,-1.53421 1.24372,-2.77792 2.77792,-2.77792 1.5342,0 2.77792,1.24371 2.77792,2.77792 z"
           sodipodi:ry="2.7779195"
           sodipodi:rx="2.7779195"
           sodipodi:cy="196.51044"
           sodipodi:cx="228.04193"
           id="path3227"
           style="fill:#000000;fill-opacity:1;stroke:#000000;stroke-width:2;stroke-linecap:round;stroke-linejoin:round;stroke-miterlimit:4;stroke-opacity:1;stroke-dasharray:none"
           sodipodi:type="arc"
           transform="matrix(-1.3354429,0,0,1.3354429,526.4489,-72.718648)" />
      </g>
    </g>
  </g>
</svg>
