<?xml version="1.0" encoding="UTF-8" standalone="no"?>
<!-- Created with Inkscape (http://www.inkscape.org/) -->

<svg
   xmlns:dc="http://purl.org/dc/elements/1.1/"
   xmlns:cc="http://creativecommons.org/ns#"
   xmlns:rdf="http://www.w3.org/1999/02/22-rdf-syntax-ns#"
   xmlns:svg="http://www.w3.org/2000/svg"
   xmlns="http://www.w3.org/2000/svg"
   xmlns:sodipodi="http://sodipodi.sourceforge.net/DTD/sodipodi-0.dtd"
   xmlns:inkscape="http://www.inkscape.org/namespaces/inkscape"
   width="744.09448819"
   height="1052.3622047"
   id="svg2"
   version="1.1"
   inkscape:version="0.48.0 r9654"
   sodipodi:docname="icon.svg">
  <defs
     id="defs4" />
  <sodipodi:namedview
     id="base"
     pagecolor="#ffffff"
     bordercolor="#666666"
     borderopacity="1.0"
     inkscape:pageopacity="0.0"
     inkscape:pageshadow="2"
     inkscape:zoom="5.6568542"
     inkscape:cx="281.44802"
     inkscape:cy="763.81667"
     inkscape:document-units="px"
     inkscape:current-layer="layer1"
     showgrid="false"
     inkscape:window-width="1440"
     inkscape:window-height="830"
     inkscape:window-x="0"
     inkscape:window-y="24"
     inkscape:window-maximized="1" />
  <metadata
     id="metadata7">
    <rdf:RDF>
      <cc:Work
         rdf:about="">
        <dc:format>image/svg+xml</dc:format>
        <dc:type
           rdf:resource="http://purl.org/dc/dcmitype/StillImage" />
        <dc:title></dc:title>
      </cc:Work>
    </rdf:RDF>
  </metadata>
  <g
     inkscape:label="Layer 1"
     inkscape:groupmode="layer"
     id="layer1">
    <path
       style="fill:#000000;fill-opacity:1;stroke:#000000;stroke-width:0.27594417;stroke-linecap:round;stroke-linejoin:round;stroke-miterlimit:4;stroke-opacity:1;stroke-dasharray:none"
       d="m 259.28737,281.18252 c -1.69034,0.14816 -3.35049,0.90998 -4.47764,2.20547 -0.86001,0.98317 -1.42121,2.23603 -1.55472,3.5424 -0.17854,1.63249 0.29931,3.3224 1.28809,4.62537 0.46381,0.6441 1.0843,1.1449 1.69616,1.63766 0.33759,0.28144 0.66365,0.61275 0.78971,1.04838 0.11356,0.39238 0.14044,0.80469 0.19341,1.20877 0.10657,1.16357 0.09,2.33408 0.17602,3.4988 0.0246,0.29597 0.0598,0.59648 0.14556,0.88043 0.36773,0.94693 1.46016,1.53101 2.44384,1.30793 0.65712,-0.13933 1.25595,-0.59333 1.52043,-1.22333 0.23685,-0.53529 0.2296,-1.13539 0.26222,-1.70979 0.0297,-0.70425 0.0552,-1.40878 0.0861,-2.1129 0.0435,-0.65742 0.091,-1.3229 0.27719,-1.95753 0.13903,-0.40233 0.45092,-0.70642 0.78251,-0.95445 0.52767,-0.42317 1.06305,-0.84912 1.47992,-1.38902 0.8432,-1.00832 1.39697,-2.26941 1.51888,-3.58641 0.14596,-1.57542 -0.29752,-3.20808 -1.2617,-4.46178 -0.85416,-1.13776 -2.08834,-1.98852 -3.46378,-2.33747 -0.61864,-0.16869 -1.26219,-0.23694 -1.90218,-0.22253 z"
       id="path2985"
       inkscape:connector-curvature="0"
       inkscape:export-filename="/tmp/icon.png"
       inkscape:export-xdpi="90"
       inkscape:export-ydpi="90" />
    <path
       sodipodi:type="star"
       style="fill:#ffa200;fill-opacity:1;stroke:#000000;stroke-width:2;stroke-linecap:round;stroke-linejoin:round;stroke-miterlimit:4;stroke-opacity:1;stroke-dasharray:none"
       id="path2996"
       sodipodi:sides="3"
       sodipodi:cx="217.68787"
       sodipodi:cy="222.01678"
       sodipodi:r1="17.180019"
       sodipodi:r2="8.5900087"
       sodipodi:arg1="1.5707963"
       sodipodi:arg2="2.6179939"
       inkscape:flatsided="false"
       inkscape:rounded="0"
       inkscape:randomized="0"
       d="m 217.68787,239.1968 -7.43917,-12.88501 -7.43917,-12.88501 14.87834,0 14.87833,-1e-5 -7.43917,12.88502 z"
       inkscape:transform-center-y="0.79478838"
       transform="matrix(0.1834632,0,0,0.18504791,219.7185,248.68014)"
       inkscape:export-filename="/tmp/icon.png"
       inkscape:export-xdpi="90"
       inkscape:export-ydpi="90" />
    <g
       id="g3788"
       transform="matrix(0.13738004,0,0,0.13856669,227.99194,259.57045)"
       inkscape:export-filename="/tmp/icon.png"
       inkscape:export-xdpi="90"
       inkscape:export-ydpi="90">
      <path
         transform="matrix(1.0431771,0,0,1.0431771,11.733742,-15.81225)"
         sodipodi:type="arc"
         style="fill:#ffffff;fill-opacity:1;stroke:#000000;stroke-width:2.56033802;stroke-linecap:round;stroke-linejoin:round;stroke-miterlimit:4;stroke-opacity:1;stroke-dasharray:none"
         id="path2994"
         sodipodi:cx="224.50641"
         sodipodi:cy="197.01552"
         sodipodi:rx="15.404826"
         sodipodi:ry="15.404826"
         d="m 239.91123,197.01552 c 0,8.50785 -6.89697,15.40482 -15.40482,15.40482 -8.50785,0 -15.40483,-6.89697 -15.40483,-15.40482 0,-8.50785 6.89698,-15.40483 15.40483,-15.40483 8.50785,0 15.40482,6.89698 15.40482,15.40483 z" />
      <path
         transform="matrix(1.3354429,0,0,1.3354429,-66.581532,-72.718648)"
         sodipodi:type="arc"
         style="fill:#000000;fill-opacity:1;stroke:#000000;stroke-width:2;stroke-linecap:round;stroke-linejoin:round;stroke-miterlimit:4;stroke-opacity:1;stroke-dasharray:none"
         id="path3772"
         sodipodi:cx="228.04193"
         sodipodi:cy="196.51044"
         sodipodi:rx="2.7779195"
         sodipodi:ry="2.7779195"
         d="m 230.81985,196.51044 c 0,1.5342 -1.24372,2.77792 -2.77792,2.77792 -1.5342,0 -2.77792,-1.24372 -2.77792,-2.77792 0,-1.53421 1.24372,-2.77792 2.77792,-2.77792 1.5342,0 2.77792,1.24371 2.77792,2.77792 z" />
      <path
         d="m 239.91123,197.01552 c 0,8.50785 -6.89697,15.40482 -15.40482,15.40482 -8.50785,0 -15.40483,-6.89697 -15.40483,-15.40482 0,-8.50785 6.89698,-15.40483 15.40483,-15.40483 8.50785,0 15.40482,6.89698 15.40482,15.40483 z"
         sodipodi:ry="15.404826"
         sodipodi:rx="15.404826"
         sodipodi:cy="197.01552"
         sodipodi:cx="224.50641"
         id="path3784"
         style="fill:#ffffff;fill-opacity:1;stroke:#000000;stroke-width:2.56033802;stroke-linecap:round;stroke-linejoin:round;stroke-miterlimit:4;stroke-opacity:1;stroke-dasharray:none"
         sodipodi:type="arc"
         transform="matrix(-1.0431771,0,0,1.0431771,448.13363,-15.81225)" />
      <path
         d="m 230.81985,196.51044 c 0,1.5342 -1.24372,2.77792 -2.77792,2.77792 -1.5342,0 -2.77792,-1.24372 -2.77792,-2.77792 0,-1.53421 1.24372,-2.77792 2.77792,-2.77792 1.5342,0 2.77792,1.24371 2.77792,2.77792 z"
         sodipodi:ry="2.7779195"
         sodipodi:rx="2.7779195"
         sodipodi:cy="196.51044"
         sodipodi:cx="228.04193"
         id="path3786"
         style="fill:#000000;fill-opacity:1;stroke:#000000;stroke-width:2;stroke-linecap:round;stroke-linejoin:round;stroke-miterlimit:4;stroke-opacity:1;stroke-dasharray:none"
         sodipodi:type="arc"
         transform="matrix(-1.3354429,0,0,1.3354429,526.4489,-72.718648)" />
    </g>
    <path
       sodipodi:type="arc"
       style="fill:#000000;fill-opacity:1;stroke:#000000;stroke-width:2;stroke-linecap:round;stroke-linejoin:round;stroke-miterlimit:4;stroke-opacity:1;stroke-dasharray:none"
       id="path2989"
       sodipodi:cx="230.60519"
       sodipodi:cy="290.0127"
       sodipodi:rx="5.4800777"
       sodipodi:ry="5.4800777"
       d="m 236.08527,290.0127 a 5.4800777,5.4800777 0 1 1 -10.96015,0 5.4800777,5.4800777 0 1 1 10.96015,0 z"
       transform="matrix(0.87395244,-0.85109852,0.87395244,0.85109852,-165.262,237.20559)"
       inkscape:export-filename="/tmp/icon.png"
       inkscape:export-xdpi="90"
       inkscape:export-ydpi="90" />
    <path
       sodipodi:type="star"
       style="fill:#000000;fill-opacity:1;stroke:#000000;stroke-width:2;stroke-linecap:round;stroke-linejoin:round;stroke-miterlimit:4;stroke-opacity:1;stroke-dasharray:none"
       id="path3006"
       sodipodi:sides="3"
       sodipodi:cx="218.67278"
       sodipodi:cy="296.73019"
       sodipodi:r1="5.0412364"
       sodipodi:r2="2.520618"
       sodipodi:arg1="1.5707963"
       sodipodi:arg2="2.6179939"
       inkscape:flatsided="false"
       inkscape:rounded="0"
       inkscape:randomized="0"
       d="m 218.67278,301.77143 -2.18292,-3.78093 -2.18292,-3.78092 4.36584,0 4.36583,0 -2.18292,3.78092 z"
       inkscape:transform-center-y="0.74571781"
       transform="matrix(0.60758118,0,0,0.59169289,156.87183,119.80195)"
       inkscape:export-filename="/tmp/icon.png"
       inkscape:export-xdpi="90"
       inkscape:export-ydpi="90" />
    <path
       inkscape:export-ydpi="90"
       inkscape:export-xdpi="90"
       inkscape:export-filename="/tmp/icon.png"
       transform="matrix(0.22675233,0,0,0.22273016,240.37205,240.83998)"
       inkscape:transform-center-y="0.95663439"
       d="m 217.68787,239.1968 -7.43917,-12.88501 -7.43917,-12.88501 14.87834,0 14.87833,-1e-5 -7.43917,12.88502 z"
       inkscape:randomized="0"
       inkscape:rounded="0"
       inkscape:flatsided="false"
       sodipodi:arg2="2.6179939"
       sodipodi:arg1="1.5707963"
       sodipodi:r2="8.5900087"
       sodipodi:r1="17.180019"
       sodipodi:cy="222.01678"
       sodipodi:cx="217.68787"
       sodipodi:sides="3"
       id="path3008"
       style="fill:#ffa200;fill-opacity:1;stroke:#000000;stroke-width:2;stroke-linecap:round;stroke-linejoin:round;stroke-miterlimit:4;stroke-opacity:1;stroke-dasharray:none"
       sodipodi:type="star" />
    <g
       inkscape:export-ydpi="90"
       inkscape:export-xdpi="90"
       inkscape:export-filename="/tmp/icon.png"
       transform="matrix(0.1697956,0,0,0.16678373,250.69155,253.94794)"
       id="g3010">
      <path
         d="m 239.91123,197.01552 c 0,8.50785 -6.89697,15.40482 -15.40482,15.40482 -8.50785,0 -15.40483,-6.89697 -15.40483,-15.40482 0,-8.50785 6.89698,-15.40483 15.40483,-15.40483 8.50785,0 15.40482,6.89698 15.40482,15.40483 z"
         sodipodi:ry="15.404826"
         sodipodi:rx="15.404826"
         sodipodi:cy="197.01552"
         sodipodi:cx="224.50641"
         id="path3012"
         style="fill:#ffffff;fill-opacity:1;stroke:#000000;stroke-width:2.56033802;stroke-linecap:round;stroke-linejoin:round;stroke-miterlimit:4;stroke-opacity:1;stroke-dasharray:none"
         sodipodi:type="arc"
         transform="matrix(1.0431771,0,0,1.0431771,11.733742,-15.81225)" />
      <path
         d="m 230.81985,196.51044 c 0,1.5342 -1.24372,2.77792 -2.77792,2.77792 -1.5342,0 -2.77792,-1.24372 -2.77792,-2.77792 0,-1.53421 1.24372,-2.77792 2.77792,-2.77792 1.5342,0 2.77792,1.24371 2.77792,2.77792 z"
         sodipodi:ry="2.7779195"
         sodipodi:rx="2.7779195"
         sodipodi:cy="196.51044"
         sodipodi:cx="228.04193"
         id="path3014"
         style="fill:#000000;fill-opacity:1;stroke:#000000;stroke-width:2;stroke-linecap:round;stroke-linejoin:round;stroke-miterlimit:4;stroke-opacity:1;stroke-dasharray:none"
         sodipodi:type="arc"
         transform="matrix(1.3354429,0,0,1.3354429,-66.581532,-72.718648)" />
      <path
         transform="matrix(-1.0431771,0,0,1.0431771,448.13363,-15.81225)"
         sodipodi:type="arc"
         style="fill:#ffffff;fill-opacity:1;stroke:#000000;stroke-width:2.56033802;stroke-linecap:round;stroke-linejoin:round;stroke-miterlimit:4;stroke-opacity:1;stroke-dasharray:none"
         id="path3016"
         sodipodi:cx="224.50641"
         sodipodi:cy="197.01552"
         sodipodi:rx="15.404826"
         sodipodi:ry="15.404826"
         d="m 239.91123,197.01552 c 0,8.50785 -6.89697,15.40482 -15.40482,15.40482 -8.50785,0 -15.40483,-6.89697 -15.40483,-15.40482 0,-8.50785 6.89698,-15.40483 15.40483,-15.40483 8.50785,0 15.40482,6.89698 15.40482,15.40483 z" />
      <path
         transform="matrix(-1.3354429,0,0,1.3354429,526.4489,-72.718648)"
         sodipodi:type="arc"
         style="fill:#000000;fill-opacity:1;stroke:#000000;stroke-width:2;stroke-linecap:round;stroke-linejoin:round;stroke-miterlimit:4;stroke-opacity:1;stroke-dasharray:none"
         id="path3018"
         sodipodi:cx="228.04193"
         sodipodi:cy="196.51044"
         sodipodi:rx="2.7779195"
         sodipodi:ry="2.7779195"
         d="m 230.81985,196.51044 c 0,1.5342 -1.24372,2.77792 -2.77792,2.77792 -1.5342,0 -2.77792,-1.24372 -2.77792,-2.77792 0,-1.53421 1.24372,-2.77792 2.77792,-2.77792 1.5342,0 2.77792,1.24371 2.77792,2.77792 z" />
    </g>
  </g>
</svg>
